<?xml version="1.0" encoding="UTF-8"?><svg id="Layer_1" xmlns="http://www.w3.org/2000/svg" viewBox="0 0 289.19 236.76"><defs><style>.cls-1{fill:#4a7f8b;}.cls-2{fill:#fff;}.cls-3{fill:#f39b22;}.cls-4{fill:#fccd0b;}.cls-5{fill:#c47796;}.cls-6{fill:#2a606d;}</style></defs><path class="cls-2" d="M262.59,177.85l.85-1.6c2.19-4.14,2.51-8.94,1.01-13.25.06-.7.1-1.41.1-2.13,0-1.78-.19-3.5-.56-5.14.65-2.45.74-5.06.21-7.64-.32-1.55-.85-3.01-1.55-4.38,1.33-2.47,2.03-5.26,1.99-8.12l-.05-3.33c-.02-1.7-.31-3.37-.83-4.96,3.27-4.23,5.1-9.48,5.1-14.93,0-4.4-1.11-8.56-3.2-12.2l2.24-15.09c.12-.81.18-1.62.18-2.44v-25.8c0-9.2-7.45-16.65-16.65-16.65h-.66c-1.31-.33-2.69-.51-4.1-.51h-16.11c-2.38,0-4.64.5-6.69,1.4-4.38-1.98-9.36-3.15-14.9-3.49-2.6-.41-5.34-.62-8.22-.62-17.33,0-27.19,8.25-32.4,15.17-2.4,3.19-4.36,6.81-5.87,10.85-.63.05-1.25.12-1.86.22h-2.18c-1.44-4.03-3.3-7.64-5.58-10.79-6.56-9.07-16.5-14.3-28.16-14.88-2.24-.37-4.57-.57-6.96-.57-5.73,0-11.09,1.1-15.88,3.21-2.21-1.08-4.69-1.69-7.32-1.69h-.66c-1.31-.33-2.69-.51-4.1-.51h-14.4c-2.27,0-4.43.46-6.4,1.28-1.59-.5-3.26-.77-4.98-.77h-.69c-1.32-.33-2.68-.51-4.08-.51h-13.39c-9.2,0-16.65,7.45-16.65,16.65v64.19c0,3.6,1.14,6.92,3.08,9.65-3.33,5.46-5.07,12.03-5.07,19.31,0,7.87,1.71,14.55,5.09,19.93-1.04,1.64-2.09,3.32-3.1,5.04-2.43,4.14-2.96,9.12-1.46,13.67,2.41,7.27,8.71,12.01,12.26,14.19,4.16,2.56,10.96,5.61,19.72,5.61,4.56,0,8.89-.84,12.81-2.43,1.62.52,3.32.79,5.06.79h12.09c2.73,0,5.33-.66,7.63-1.85,2.3,1.18,4.89,1.85,7.63,1.85h12.25c1.14,0,2.26-.12,3.35-.35,1.35.35,2.75.54,4.2.54.04,0,.07,0,.11,0l15.02-.1c2.65-.02,5.18-.66,7.42-1.8,2.22,1.09,4.71,1.71,7.34,1.71h23.96c1.46,0,2.88-.19,4.23-.54,1.44.41,2.96.63,4.53.63h4.75c1.37,0,2.7-.17,3.98-.49,1.29.32,2.62.49,3.98.49h5.29c1.14,0,2.26-.12,3.34-.34,1.08.22,2.2.34,3.34.34h5.36c.2,0,.41-.01.61-.02.23,0,.47.02.71.02h4.72c.63,0,1.25-.03,1.86-.1.61.07,1.23.1,1.85.1h5.36c.36,0,.71-.01,1.06-.03.34.02.68.03,1.03.03h4.75c.8,0,1.59-.06,2.36-.17.6.07,1.2.1,1.81.1.27,0,.55,0,.83-.02l5.46-.27c5.71-.28,10.88-3.47,13.68-8.45,2.81-4.98,2.86-11.05.15-16.08l-1.03-1.9Z"/><path class="cls-1" d="M187.17,144.23c.57-.77,1.23-1.57,1.82-2.32.59.77,1.71,1.34,2.64,1.37.82,0,1.64-.39,1.64-1.3,0-2.51-6.01-.18-6.01-5.65,0-2.6,1.85-4.17,4.76-4.17,2.64,0,4.47,1.14,4.6,1.8-.25.18-1.55,2.37-1.82,2.57-.41-.84-1.5-1.39-2.46-1.39-.84,0-1.71.34-1.71,1.34,0,2.39,5.99.09,5.99,5.58,0,2.64-1.85,4.15-4.67,4.15-2.57,0-4.51-1.32-4.78-1.98Z"/><path class="cls-1" d="M197.93,137.24c.02-2.53.21-3.9.25-4.62,1.16-.09,2.3-.21,3.44-.3-.05.73-.23,2.46-.27,4.78-.07,2.78-.09,6.11,1.46,6.11s1.59-3.3,1.5-6.11c-.02-2.32-.25-4.1-.27-4.35,1.14-.11,2.28-.21,3.42-.32.02.27.25,2.19.3,4.81.14,5.54-.73,8.98-4.92,9.04-4.17-.05-5.04-3.53-4.9-9.04Z"/><path class="cls-1" d="M209.36,132.95c1.14-.09,2.26-.2,3.39-.32l3.03,6.49h.16l-.21-6.29,3.55-.32.02,13.31h-3.1l-3.1-6.11h-.2l.02,6.11h-3.21c-.11-4.28-.25-8.57-.36-12.87Z"/><path class="cls-1" d="M220.57,144.23c.57-.77,1.23-1.57,1.82-2.32.59.77,1.71,1.34,2.64,1.37.82,0,1.64-.39,1.64-1.3,0-2.51-6.01-.18-6.01-5.65,0-2.6,1.85-4.17,4.76-4.17,2.64,0,4.47,1.14,4.6,1.8-.25.18-1.55,2.37-1.82,2.57-.41-.84-1.5-1.39-2.46-1.39-.84,0-1.71.34-1.71,1.34,0,2.39,5.99.09,5.99,5.58,0,2.64-1.85,4.15-4.67,4.15-2.57,0-4.51-1.32-4.78-1.98Z"/><path class="cls-1" d="M230.94,132.84l7.54-.3v2.78h-3.99v2.76l2.98-.27v2.8h-2.96v2.82l3.87-.59v2.98h-7.09l-.36-12.99Z"/><path class="cls-1" d="M242.33,135.85h-2.87v-3.03l9.3-.3.05,3.33h-2.98v9.98h-3.21l-.27-9.98Z"/><path class="cls-1" d="M188.27,165.05l-.4-14.56c1.14-.77,3.01-1.11,4.78-1.11,3.78,0,7.24,2.27,7.27,8.03-.03,5.1-2.72,8.3-7.4,8.3-1.85,0-3.65-.5-4.26-.66ZM195.77,157.55c0-2.75-1.16-4.6-2.91-4.65-.34,0-.61.05-.87.19v8.96c.08.03.45.13.87.13,1.74,0,2.91-1.8,2.91-4.63Z"/><path class="cls-1" d="M201.22,155.3c.03-2.93.24-4.52.29-5.37,1.35-.11,2.67-.24,3.99-.34-.05.85-.26,2.85-.32,5.55-.08,3.22-.11,7.08,1.69,7.08s1.85-3.83,1.74-7.08c-.03-2.7-.29-4.76-.32-5.05,1.32-.13,2.64-.24,3.96-.37.03.32.29,2.54.34,5.58.16,6.42-.85,10.41-5.71,10.49-4.84-.05-5.84-4.1-5.68-10.49Z"/><path class="cls-1" d="M214.48,150.33c1.32-.11,2.62-.24,3.94-.37l3.51,7.53h.19l-.24-7.29,4.12-.37.03,15.43h-3.59l-3.59-7.08h-.24l.03,7.08h-3.73c-.13-4.97-.29-9.94-.42-14.93Z"/><path class="cls-1" d="M228.01,150.2l8.75-.34v3.22h-4.62v3.2l3.46-.32v3.25h-3.44v3.28l4.49-.69v3.46h-8.22l-.42-15.06Z"/><path class="cls-1" d="M237.74,163.42c.66-.9,1.43-1.82,2.11-2.7.69.9,1.98,1.56,3.07,1.59.95,0,1.9-.45,1.9-1.51,0-2.91-6.98-.21-6.98-6.55,0-3.01,2.14-4.84,5.52-4.84,3.07,0,5.18,1.32,5.34,2.09-.29.21-1.8,2.75-2.11,2.99-.48-.98-1.74-1.61-2.85-1.61-.98,0-1.98.4-1.98,1.56,0,2.78,6.95.11,6.95,6.48,0,3.07-2.14,4.81-5.42,4.81-2.99,0-5.23-1.53-5.55-2.3Z"/><path class="cls-5" d="M187.6,169.03c1.48-.64,4.18-1.25,6.71-1.25,4.32,0,7.82,1.99,7.82,6.57,0,5.6-3.81,7.28-7.35,7.28-.74,0-1.48-.03-1.89-.1v6.51h-4.75l-.54-19.01ZM197.07,174.83c0-1.79-1.35-2.6-2.83-2.6-.67,0-1.25.1-1.38.13v5.39c.13.03.64.1,1.18.1,1.55,0,3.03-.91,3.03-3.03Z"/><path class="cls-5" d="M205.87,168.9l7.18-.54,5.12,19.69h-5.36l-.81-3.74-5.16.17-.71,3.57h-5.29l5.02-19.15ZM211.3,180.39l-1.58-7.08h-.51l-1.48,7.08h3.57Z"/><path class="cls-5" d="M218.95,169.03c1.48-.64,4.11-1.25,6.68-1.25,4.28,0,7.69,1.99,7.69,6.57,0,3.1-1.18,5.12-2.87,6.2l2.83,7.48h-5.36l-2.19-6.41c-.57,0-1.11-.03-1.52-.1v6.51h-4.72c-.17-6.34-.37-12.68-.54-19.01ZM228.43,174.83c0-1.79-1.35-2.6-2.87-2.6-.64,0-1.21.1-1.35.13v5.39c.13.03.61.1,1.18.1,1.55,0,3.03-.91,3.03-3.03Z"/><path class="cls-5" d="M234.83,168.83l5.26-.47v8.29h.37l3.24-7.82,5.83-.34-5.02,9.47,5.26,9.74-5.46.27-3.67-7.11-.51.03v7.15h-4.75c-.17-6.41-.37-12.81-.54-19.22Z"/><path class="cls-3" d="M44.35,181.22c1.93-3.27,4.16-6.64,6.16-9.82,2,3.27,5.78,5.68,8.93,5.78,2.77,0,5.55-1.64,5.55-5.49,0-10.59-20.34-.77-20.34-23.88,0-10.98,6.24-17.62,16.1-17.62,8.94,0,15.1,4.81,15.56,7.61-.85.77-5.24,10.01-6.16,10.88-1.39-3.56-5.08-5.87-8.32-5.87-2.85,0-5.78,1.44-5.78,5.68,0,10.11,20.26.39,20.26,23.59,0,11.17-6.24,17.52-15.79,17.52-8.7,0-15.25-5.58-16.18-8.38Z"/><path class="cls-3" d="M89.87,133.27l16.41-1.54,11.71,56.23h-12.25l-1.85-10.69-11.79.48-1.62,10.21h-12.09l11.48-54.69ZM102.27,166.1l-3.62-20.22h-1.16l-3.39,20.22h8.17Z"/><path class="cls-3" d="M114.75,133.17l12.4-1.35,5.7,38.61h.38l5.62-37.26,11.94-1.25-10.24,56.14-15.02.1-10.78-54.98Z"/><path class="cls-3" d="M154.19,133.08l25.5-1.25v11.75h-13.48v11.65l10.09-1.16v11.84h-10.01v11.94l13.09-2.5v12.61h-23.96l-1.23-54.88Z"/><path class="cls-4" d="M83.04,119.36l-9.45-18.43c-3.58-6.97-6.97-13.94-8.25-17.61.37,3.67.46,11.83.46,17.88v18.16h-14.4V55.17h13.39l8.16,14.67c3.67,6.6,7.34,14.49,8.53,17.97-.37-3.48-.55-12.38-.55-18.25v-14.4h14.4v64.19h-12.29Z"/><path class="cls-4" d="M123.12,120.37c-14.4,0-22.83-10.36-22.83-33.01s8.62-33.2,23.02-33.2,22.93,10.45,22.93,33.01-8.62,33.2-23.11,33.2ZM123.21,67.37c-4.86,0-7.15,4.31-7.15,19.81s2.48,19.99,7.24,19.99,7.15-4.31,7.15-19.81-2.48-19.99-7.24-19.99Z"/><path class="cls-4" d="M156.26,93.99c-3.38,0-5.38-2.36-5.38-6.9s1.86-6.97,5.43-6.97,5.41,2.36,5.41,6.9-1.94,6.97-5.46,6.97ZM156.29,83.39c-.96,0-1.33.89-1.33,3.63s.37,3.7,1.36,3.7c.93,0,1.33-.94,1.33-3.65s-.4-3.68-1.36-3.68Z"/><path class="cls-4" d="M169.12,93.71v-8.75c0-1.01-.35-1.5-1.01-1.5-.53,0-.91.2-1.28.51v9.74h-4.1v-13.31h4.1v.76c.72-.58,1.52-1.04,2.85-1.04,2.32,0,3.54,1.32,3.54,4.16v9.43h-4.1Z"/><path class="cls-4" d="M206.01,120.37c-15.94,0-25.12-10.82-25.12-33.1s8.37-33.1,25.42-33.1c14.83,0,19.97,7.06,23,19.17l-16.14,4.22c-1.51-6.97-2.72-10.18-6.96-10.18-5.95,0-7.87,5.14-7.87,19.9,0,15.86,2.52,20.17,8.68,20.17,5.45,0,7.06-2.93,7.46-8.07v-2.66h-8.17v-11.74h24.11v10.09c0,15.59-7.87,25.31-24.41,25.31Z"/><path class="cls-4" d="M244.18,120.35c-5.11,0-8.84-3.39-8.84-7.95s3.73-7.95,8.84-7.95,8.84,3.3,8.84,7.95-3.63,7.95-8.84,7.95ZM249.68,99.9h-10.9l-2.65-17.23v-25.8h16.11v25.8l-2.55,17.23Z"/><path class="cls-6" d="M78.28,118.85l-9.45-18.43c-3.58-6.97-6.97-13.94-8.25-17.61.37,3.67.46,11.83.46,17.88v18.16h-14.4V54.66h13.39l8.16,14.67c3.67,6.6,7.34,14.49,8.53,17.97-.37-3.48-.55-12.38-.55-18.25v-14.4h14.4v64.19h-12.29Z"/><path class="cls-6" d="M118.35,119.86c-14.4,0-22.83-10.36-22.83-33.01s8.62-33.2,23.02-33.2,22.93,10.45,22.93,33.01-8.62,33.2-23.11,33.2ZM118.44,66.86c-4.86,0-7.15,4.31-7.15,19.81s2.48,19.99,7.24,19.99,7.15-4.31,7.15-19.81-2.48-19.99-7.24-19.99Z"/><path class="cls-6" d="M151.5,93.48c-3.38,0-5.38-2.36-5.38-6.9s1.86-6.97,5.43-6.97,5.41,2.36,5.41,6.9-1.94,6.97-5.46,6.97ZM151.53,82.88c-.96,0-1.33.89-1.33,3.63s.37,3.7,1.36,3.7c.93,0,1.33-.94,1.33-3.65s-.4-3.68-1.36-3.68Z"/><path class="cls-6" d="M164.36,93.2v-8.75c0-1.01-.35-1.5-1.01-1.5-.53,0-.91.2-1.28.51v9.74h-4.1v-13.31h4.1v.76c.72-.58,1.52-1.04,2.85-1.04,2.32,0,3.54,1.32,3.54,4.16v9.43h-4.1Z"/><path class="cls-6" d="M201.24,119.86c-15.94,0-25.12-10.82-25.12-33.1s8.37-33.1,25.42-33.1c14.83,0,19.97,7.06,23,19.17l-16.14,4.22c-1.51-6.97-2.72-10.18-6.96-10.18-5.95,0-7.87,5.14-7.87,19.9,0,15.86,2.52,20.17,8.68,20.17,5.45,0,7.06-2.93,7.46-8.07v-2.66h-8.17v-11.74h24.11v10.09c0,15.59-7.87,25.31-24.41,25.31Z"/><path class="cls-6" d="M239.41,119.84c-5.11,0-8.84-3.39-8.84-7.95s3.73-7.95,8.84-7.95,8.84,3.3,8.84,7.95-3.63,7.95-8.84,7.95ZM244.91,99.39h-10.9l-2.65-17.23v-25.8h16.11v25.8l-2.55,17.23Z"/></svg>